<?xml version="1.0" encoding="UTF-8"?>
<svg xmlns="http://www.w3.org/2000/svg" version="1.1" viewBox="0 0 628.47 627.03">
  <!-- Generator: Adobe Illustrator 30.6.0, SVG Export Plug-In . SVG Version: 2.1.4 Build 109)  -->
  <defs>
    <style>
      .st0 {
        fill: #0f2233;
      }

      .st1 {
        fill: #ffb20c;
      }

      .st2 {
        fill: #0e1f33;
      }

      .st3 {
        fill: #0e2034;
      }

      .st4 {
        fill: #74d6ef;
      }

      .st5 {
        fill: #0f2034;
      }

      .st6 {
        fill: #fe5900;
      }

      .st7 {
        fill: #14263e;
      }

      .st8 {
        fill: #fdfdfd;
      }
    </style>
  </defs>
  <g id="background">
    <rect class="st4" width="627.03" height="627.03"/>
  </g>
  <g id="right_hand">
    <path class="st3" d="M175.11,424.4c-7.18,4.31-54.12,44.49-69.21,62.48s-33.3,39.1-42.37,61.78c-2.59,6.48-5.07,23.38-3.78,30.24,1.08,5.72,3.78,12.47,13.61,18.9,5.31,3.47,18.23,5.99,24.57,6.43,7.25.5,21.72-2.6,28.72-4.54,3.42-.94,9.95-3.99,12.85-6.05,14.34-10.17,37.02-37.67,48-51.4,8.39-10.5,22.7-33.37,29.48-44.98,4.15-7.11,11.59-22.4,12.09-30.61.47-7.58-5.87-22.71-10.96-28.35-7.57-8.38-33.31-19.7-43-13.89Z"/>
  </g>
  <g id="stomach">
    <g>
      <path class="st3" d="M175.11,424.4c-7.19-.81-32.15,59.91-37.57,98.8-9.64,69.17-4.89,103.83-4.89,103.83h494.38s3.23-111.94,0-142.95c-7.03-67.46-47.36-109.04-47.36-109.04,0,0-266.51,64.82-404.57,49.36Z"/>
      <path class="st8" d="M222.96,428.07c-8.31.09-37.66,65.02-44.6,88.89-14.17,48.76-6.24,110.07-6.24,110.07h368.17s-3-33.61-9.31-56.21c-6.8-24.38-28.35-86.17-44.22-117.35-4.64-9.11-14.17-16.44-2.27-40.82,3.08-6.31,18.71-20.92,18.71-20.92,0,0-176.31,35.2-280.26,36.34Z"/>
    </g>
  </g>
  <g id="head" transform="translate(363.4 253.1) scale(1.07) translate(-363.4 -253.1)">
    <g>
      <path class="st5" d="M175.11,424.4c55.84,18.61,384.93-29.71,404.57-49.36,10.77-10.77,28.44-104.04-5.39-168.59-48.35-92.27-119.62-121.32-178.58-127.56-50.01-5.29-126.78,2.41-191.06,62.93-27.74,26.12-54.99,61.8-69.73,135.5-12.19,60.97,28.28,143.11,40.19,147.08Z"/>
      <path class="st8" d="M221.52,428.58s-59.41-43.15-53.13-115.07h0s2.79-87.58,71.75-95.95c19.2-2.33,47.07,9.13,63.7,43.9,4.42,9.23,11.34,45.63,7.8,67.02-.97,5.88,68.72-4.32,63.64-8.06-5.75-4.22-10.48-48.5-10.48-48.5,0,0-5.4-75.09,62.87-89.33,1.96-.41,64.77-13.35,100.16,59.34,3.24,6.65,16.77,39.57,11.1,75.65-1.37,8.74-5.45,25.29-13.98,41.4-7.2,13.59-24.47,37.77-27.46,38.34-11.36,2.14-68.46,15.64-145.06,22.63-91.32,8.33-107.48,9.15-130.91,8.64Z"/>
    </g>
  </g>
  <g id="right_eye" transform="translate(363.4 253.1) scale(1.07) translate(-363.4 -253.1)">
    <g>
      <ellipse class="st2" cx="253.88" cy="309.68" rx="29.15" ry="37.94" transform="translate(-44.65 42.78) rotate(-8.86)"/>
      <ellipse class="st8" cx="261.51" cy="296.07" rx="10.06" ry="11.06" transform="translate(-49.19 52.13) rotate(-10.41)"/>
    </g>
  </g>
  <g id="left_eye" transform="translate(363.4 253.1) scale(1.07) translate(-363.4 -253.1)">
    <path class="st2" d="M433.03,266.54c3.35-.98,9.73-1.68,13.23-1.61,1.56.03,14.27-.28,25.42,11.24,2.15,2.22,3.75,6.84,2.35,9.08-4.43,7.08-8.78,1.69-13.31.09-1.97-.7-7.79-2.74-13.88-2.51-4.17.15-9.15,1.45-11.44,2.23-1.83.62-12.57,4.35-19.94,14.08-1.55,2.04-3.48,5.44-8.41,3.87-2.08-.66-2.61-3.89-2.9-4.89-.23-.84.44-23.26,28.88-31.58Z"/>
  </g>
  <g id="mouth" transform="translate(363.4 253.1) scale(1.07) translate(-363.4 -253.1)">
    <g>
      <path class="st1" d="M305.35,326.98c4.61-6.83,9.13-11.69,15.02-16.23,2.06-1.59,4.15-3.14,6.45-4.34,4.39-2.27,8.17-3.47,13.04-4.29,2.43-.41,6.08-.49,8.53-.2,2.2.26,6.43,1.34,8.48,2.19,9.04,3.73,13.33,6.43,21.26,12.05,5.01,3.55,12.61,10.93,13.61,13.61.48,1.3-.88,5.86-1.13,7.23-3.4,18.43-22.12,35-28.49,38.27-16.58,8.5-27.54,4.09-31.46,2.83-2.51-.8-7.05-2.68-9.19-4.21-7.49-5.34-15.09-10.78-20.15-18.46-1.19-1.81-3.25-3.87-4.26-5.78-.75-1.41-1.52-2.82-1.69-4.42-.34-3.3,8.05-15.34,9.99-18.22Z"/>
      <path class="st6" d="M308.26,351.02c43.23,10.5,62.02-8.51,71.57-12.61,5.45-2.34-15.34,19.69-32.32,23.66-20.04,4.68-45.24-12.5-39.26-11.04Z"/>
    </g>
  </g>
  <g id="left_hand">
    <g>
      <path class="st0" d="M450.11,472.93c-39.55,55.54-23.76,87.26-15.59,94.39,17.86,15.59,60.94,32.6,141.17-21.83,56.42-38.28,38.91-108.52,8.67-134.04-39-32.92-94.69,5.94-134.24,61.48Z"/>
      <path class="st7" d="M456.16,465.8c-36.68,51.5-30.43,77.44-24.2,85.37,13.61,17.29,66.47,32.55,140.93-17.87,52.37-35.46,36.01-100.67,7.9-124.39-36.27-30.6-87.95,5.4-124.63,56.9Z"/>
    </g>
  </g>
</svg>